<?xml version="1.0" encoding="utf-8"?>
<!-- Generator: Adobe Illustrator 17.0.0, SVG Export Plug-In . SVG Version: 6.00 Build 0)  -->
<!DOCTYPE svg PUBLIC "-//W3C//DTD SVG 1.1//EN" "http://www.w3.org/Graphics/SVG/1.1/DTD/svg11.dtd">
<svg version="1.1" id="Layer_1" xmlns="http://www.w3.org/2000/svg" xmlns:xlink="http://www.w3.org/1999/xlink" x="0px" y="0px"
	 width="48px" height="48px" viewBox="0 0 48 48" enable-background="new 0 0 48 48" xml:space="preserve">
<path fill="#D1D1D1" stroke="#FFFFFF" stroke-miterlimit="10" d="M33.408,33.408c-0.734,0.734-1.922,0.734-2.656,0l-3.314-3.314
	c-1.364,0.873-2.975,1.395-4.714,1.395c-4.841,0-8.765-3.924-8.765-8.765s3.924-8.765,8.765-8.765s8.765,3.924,8.765,8.765
	c0,1.739-0.522,3.351-1.395,4.714l3.314,3.314C34.142,31.486,34.142,32.675,33.408,33.408z M22.724,16.463
	c-3.457,0-6.261,2.802-6.261,6.261s2.804,6.261,6.261,6.261c3.458,0,6.261-2.802,6.261-6.261S26.182,16.463,22.724,16.463z"/>
</svg>
