<?xml version="1.0" encoding="utf-8"?>
<!-- Generator: Adobe Illustrator 17.0.0, SVG Export Plug-In . SVG Version: 6.00 Build 0)  -->
<!DOCTYPE svg PUBLIC "-//W3C//DTD SVG 1.1//EN" "http://www.w3.org/Graphics/SVG/1.1/DTD/svg11.dtd">
<svg version="1.1" id="Capa_1" xmlns="http://www.w3.org/2000/svg" xmlns:xlink="http://www.w3.org/1999/xlink" x="0px" y="0px"
	 width="27.148px" height="27.148px" viewBox="0 0 27.148 27.148" enable-background="new 0 0 27.148 27.148" xml:space="preserve">
<path fill="#D1D1D1" stroke="#FFFFFF" stroke-miterlimit="10" d="M23.091,12.439h-1.213c-0.508-3.723-3.459-6.67-7.183-7.17
	l-0.003-1.214c-0.001-0.265-0.144-0.481-0.324-0.481l-1.593,0.001c-0.178,0-0.323,0.216-0.323,0.483l0.001,1.21
	C8.732,5.77,5.78,8.718,5.272,12.439H4.056c-0.267,0-0.483,0.144-0.483,0.324v1.593c0,0.178,0.216,0.323,0.483,0.323h1.211
	c0.497,3.735,3.454,6.697,7.185,7.199l0.003,1.213c0,0.267,0.144,0.483,0.323,0.483l1.591-0.003c0.18,0,0.323-0.216,0.323-0.482
	v-1.212c3.732-0.501,6.692-3.463,7.188-7.199h1.209c0.267,0,0.483-0.145,0.483-0.323v-1.593
	C23.574,12.583,23.358,12.439,23.091,12.439z M16.919,14.679h1.937c-0.213,1.025-0.717,1.955-1.468,2.708
	c-0.751,0.751-1.682,1.253-2.71,1.466v-1.937c0-0.148-0.121-0.267-0.267-0.267h-1.675c-0.148,0-0.267,0.119-0.267,0.267v1.937
	c-1.026-0.213-1.958-0.715-2.708-1.466c-0.751-0.752-1.253-1.683-1.465-2.708h1.938c0.147,0,0.267-0.121,0.267-0.269v-1.673
	c0-0.148-0.121-0.269-0.267-0.269H8.296c0.212-1.023,0.715-1.955,1.465-2.707c0.751-0.752,1.683-1.256,2.708-1.468v1.938
	c0,0.147,0.119,0.266,0.267,0.266h1.675c0.147,0,0.267-0.119,0.267-0.266V8.293c1.026,0.211,1.958,0.715,2.71,1.468
	c0.751,0.751,1.255,1.683,1.468,2.707h-1.937c-0.148,0-0.267,0.121-0.267,0.269v1.673C16.651,14.558,16.771,14.679,16.919,14.679z"
	/>
</svg>
