<?xml version="1.0" encoding="utf-8"?>
<!-- Generator: Adobe Illustrator 16.0.4, SVG Export Plug-In . SVG Version: 6.00 Build 0)  -->
<!DOCTYPE svg PUBLIC "-//W3C//DTD SVG 1.1//EN" "http://www.w3.org/Graphics/SVG/1.1/DTD/svg11.dtd">
<svg version="1.1" id="Capa_1" xmlns="http://www.w3.org/2000/svg" xmlns:xlink="http://www.w3.org/1999/xlink" x="0px" y="0px"
	 width="40.826px" height="48.137px" viewBox="0 0 40.826 48.137" enable-background="new 0 0 40.826 48.137" xml:space="preserve">
<path fill="#231F20" d="M13.591,26.877l1.68,0.816l-0.96,1.967l-0.961,0.146l-0.146,0.77l-1.968,1.682l-0.912,1.727l0.671,0.721
	l-1.101-0.289l-0.387-0.961l1.104-4.465l-0.913-0.816l-0.429-1.727l0.516-0.844l-0.471,0.072l-0.67-0.863l-0.577-0.288l-1.344-0.481
	l-1.106-1.728l-0.671-1.248v-1.682l-1.104-1.872l-1.394-0.865l-0.864,0.48L0,17.899l1.007-0.816l-0.625-0.145l-0.237-0.816
	l0.719-0.577L0.145,15.45l0.142-0.528h0.529l-0.48-0.721l1.296-0.77l2.353,1.298l0.867-0.816l1.871,1.104l3.601-0.387v1.826
	l-1.44,0.287l-0.289,0.771l1.393,1.487l0.336-0.048l0.238-1.872l0.916-0.047l0.381,1.054l0.481-0.287l1.056,2.355l-1.488,0.669
	l-1.152,0.626l-0.912,1.249v0.625l-0.337,0.047l-0.238-0.672l-1.297,0.191l-0.288,0.815l0.335,0.481l0.479-0.386l0.481,0.047
	l-0.24,0.685l0.575,0.04l0.193,0.719l0.388,0.129l0.286-0.467l1.921,0.193l1.294,0.961L13.591,26.877z M36.335,26.449l-0.104,0.814
	l-0.69-0.252l0.127-0.439l-0.756-0.062l-0.979,0.912l-1.039,0.377l0.252,1.412l-0.095,0.283l0.38,0.219l1.541-0.381l0.598,0.348
	l0.283-0.156l0.188,0.57l0.785,0.221l0.569-0.348l0.313-1.695l-0.853-0.85L36.335,26.449z M32.517,25.66l0.818,0.156l0.378-1.162
	l-0.222-0.191l-1.1,0.693L32.517,25.66z M35.033,25.344l0.85,0.881l0.487,0.033l0.205-0.188l0.693,0.438l-0.283-0.598l-1.291-0.627
	L35.033,25.344z M36.576,18.202h-0.22l-0.032,1.132l-0.566,1.197l-0.724,0.534l-0.031,0.472l1.321-0.786l0.063-0.819l0.438-0.407
	l-0.345-0.281l0.188-0.663L36.576,18.202z M39.976,29.625l0.094,0.879l-0.975,0.914l0.629,0.062l0.564-0.852l0.441-0.596
	l-0.283-0.031L39.976,29.625z M18.939,16.381v0.917l0.637-0.279l0.18-0.28l-0.689-1.326l-0.407,0.283l0.025,0.354l-0.383,0.462
	l-0.026,0.482h0.46L18.939,16.381z M24.696,27.178l-0.026,1.021l0.41,0.178l0.407-1.223l-0.104-0.512L24.696,27.178z M38.844,16.5
	l0.031,0.725l-0.819,1.008l-0.031-1.134l1.069-1.291l-0.659,0.097l-0.851,0.691l-1.04-0.062l-0.785,0.756l0.565,0.408l-0.659,1.825
	l-0.566,0.096l-0.347,0.503l0.156,0.661L34.5,21.001l-0.127-0.597l-0.347-0.474l-0.473,0.501l0.377,1.069l-0.533,0.978l-1.166,0.062
	l-0.25,0.41l0.533,0.786l-0.566,0.473l-0.58-0.603l-0.02,0.568l0.506,0.568l0.22,1.006l0.631,0.223l0.851,0.346l-1.574-0.283
	l-0.662-0.629l-0.596-0.851l0.815,0.41l-0.377-0.689l-0.077-0.941l-0.361,0.091l-0.44-0.942l-1.229,0.851v0.539l-0.441,0.438
	l-0.564-1.416l-0.628-0.756l-1.512-0.283l-0.44-0.375l-0.221,0.125l0.314,0.756l0.502-0.252l0.662,0.503l-1.949,1.164l-1.01-1.982
	l-0.211,0.037l1.029,2.354l1.007-0.473l-0.313,1.103l-1.008,0.91l0.156,1.354l-0.566,0.439l-1.036,1.951l-1.04,0.189l-0.912-2.203
	l0.221-1.006l-0.566-1.764l-1.92,0.125l-1.072-1.038l0.19-1.699l1.039-1.259l2.013-0.346l0.127,0.533l0.818,0.534l0.314-0.439
	l1.25,0.32l0.324-0.195l0.142-0.47l-0.864-0.145l-0.279-0.482l-0.203-0.104l-0.178,0.611l-0.385-0.485l0.026-0.406l-0.513-0.407
	l-0.305-0.153l0.026,0.408l0.638,0.433l-0.332,0.384l-0.457-0.612l-0.331-0.384l-0.765,0.384l-0.535,0.841l-0.815-0.127
	l-0.051-1.019l1.043,0.073l-0.329-0.532l-0.205-0.435l0.79-0.256l0.433-0.584l0.357-0.027l-0.077-0.33l0.229-0.307l0.179,0.509
	l0.993,0.025l0.279-0.715l0.385,0.129l-0.129-0.483l0.592-0.189l-0.184-0.218l-0.536,0.15l-0.188-0.457l-0.024-0.003l0.015-0.032
	l-0.078-0.192l0.215-0.153l0.188-0.479l-0.2-0.03l-0.331,0.408l-0.279,0.609l0.308,0.33l-0.308,0.816l-0.459,0.179l-0.254-0.814
	l-0.536,0.306l-0.254-0.152l0.024-0.79l0.46-0.354l0.383-0.943l0.969-0.533l2.418,0.444c2.789-0.293,7.85-0.83,7.85-0.83l8.35,1.179
	l0.314,0.881l-1.135,0.631L38.844,16.5z M24.519,19.69l-1.324-0.688l-0.407,0.713l0.178,0.329l0.767-0.126l0.56,0.153L24.519,19.69z
	 M25.918,20.553l-0.124-0.789l-0.257-0.382l0.308-0.128v-0.381l-0.791,0.433l0.279,0.714l-0.125,0.483L25.918,20.553z
	 M14.509,14.365L13.8,14.17l-0.877,0.937l1.127,2.935l0.533,0.132l0.042-0.954l0.361-0.222l0.021-0.362l0.372-0.699l-0.26-0.527
	L14.509,14.365z"/>
</svg>
